<svg xmlns="http://www.w3.org/2000/svg" viewBox="0 0 9.83 13.46"><defs><style>.cls-1{fill:#a5a5a5;}</style></defs><g id="Layer_2" data-name="Layer 2"><g id="Layer_1-2" data-name="Layer 1"><path class="cls-1" d="M9.77,4.16a4.88,4.88,0,0,0-6-4A4.66,4.66,0,0,0,.19,3.64,4.74,4.74,0,0,0,1.55,8.48a.28.28,0,0,1,.1.22v4.38a.36.36,0,0,0,.45.37.69.69,0,0,0,.19-.1l2.52-1.57a.18.18,0,0,1,.22,0l2.52,1.57a.75.75,0,0,0,.2.1.36.36,0,0,0,.44-.4V8.72a.32.32,0,0,1,.1-.25A4.81,4.81,0,0,0,9.77,4.16ZM7.45,12.43l-.13-.08L5.21,11a.5.5,0,0,0-.58,0l-2.1,1.32-.15.08V9.13a5,5,0,0,0,5.07,0ZM4.89,9.1A4.19,4.19,0,1,1,9.1,4.91,4.19,4.19,0,0,1,4.89,9.1Z"/><path class="cls-1" d="M8.09,3.71a.4.4,0,0,0-.37-.26L6.14,3.23A.2.2,0,0,1,6,3.1l-.7-1.42a.39.39,0,0,0-.36-.27.41.41,0,0,0-.37.27c-.22.47-.46.94-.69,1.41a.22.22,0,0,1-.17.14l-1.58.22a.39.39,0,0,0-.36.27.38.38,0,0,0,.14.41L3,5.25a.26.26,0,0,1,.06.19c0,.19-.06.37-.09.56-.07.38-.13.75-.19,1.09a.37.37,0,0,0,.55.37L4.8,6.7A.21.21,0,0,1,5,6.7l1.39.73a.39.39,0,0,0,.45,0A.41.41,0,0,0,7,7L6.74,5.45a.19.19,0,0,1,.07-.21l1.13-1.1A.4.4,0,0,0,8.09,3.71Zm-1.4.63-.58.57a.42.42,0,0,0-.12.4c.06.37.12.75.19,1.16L6,6.4l-.89-.47a.44.44,0,0,0-.47,0l-1,.55c0-.29.09-.55.13-.81,0,0,0-.08,0-.11a.7.7,0,0,0-.27-.84,7.62,7.62,0,0,1-.63-.64L3.47,4l.59-.08a.41.41,0,0,0,.34-.25q.24-.51.51-1.05a.37.37,0,0,1,.06.1c.16.31.31.62.46.93a.44.44,0,0,0,.37.27L7,4.08Z"/></g></g></svg>