<svg xmlns="http://www.w3.org/2000/svg" viewBox="0 0 15.21 15.13"><defs><style>.cls-1{fill:#a5a5a5;}</style></defs><g id="Layer_2" data-name="Layer 2"><g id="Layer_1-2" data-name="Layer 1"><path class="cls-1" d="M0,3.15a4.26,4.26,0,0,1,.25-.71,1.81,1.81,0,0,1,1.66-1c1.1,0,2.2,0,3.29,0a.38.38,0,1,1,0,.75H2A1.12,1.12,0,0,0,.8,3.1a1.34,1.34,0,0,0,0,.35v9.7a1.12,1.12,0,0,0,.84,1.17,1.2,1.2,0,0,0,.38,0H12.43a1.15,1.15,0,0,0,1.23-1.23V9.92A.38.38,0,0,1,14,9.51a.37.37,0,0,1,.46.35c0,.31,0,.61,0,.91,0,.86,0,1.71,0,2.57a1.87,1.87,0,0,1-1.77,1.78H2a1.86,1.86,0,0,1-1.73-1,4.16,4.16,0,0,1-.25-.7Z"/><path class="cls-1" d="M13.07,0a1.68,1.68,0,0,1,1.12.44c.18.16.35.33.51.5a1.7,1.7,0,0,1,0,2.38l-.13.13L8.06,10a.89.89,0,0,1-.43.25l-2.95.82a.48.48,0,0,1-.39,0,.38.38,0,0,1-.17-.46c.24-.85.49-1.69.7-2.55a2.57,2.57,0,0,1,.74-1.27C7.64,4.72,9.71,2.64,11.78.57A1.8,1.8,0,0,1,13.07,0ZM11.46,2,6,7.51,7.69,9.23l5.49-5.49ZM12,1.4,13.8,3.21l.33-.35.14-.16a1,1,0,0,0,0-1.11A4.76,4.76,0,0,0,13.62,1a.83.83,0,0,0-1-.1A6,6,0,0,0,12,1.4ZM5.56,8.24,5,10.19l2-.54Z"/></g></g></svg>