<svg xmlns="http://www.w3.org/2000/svg" viewBox="0 0 12.84 12.81"><defs><style>.cls-1{fill:#a5a5a5;}</style></defs><g id="Layer_2" data-name="Layer 2"><g id="Layer_1-2" data-name="Layer 1"><path class="cls-1" d="M2.89,12.29V10.63c0-.24,0-.29.28-.29H4c-.3-.36-.13-.76-.1-1.13.09-1,.2-2.06.31-3.09A.28.28,0,0,0,4.2,6a1.75,1.75,0,0,1-.09-.68c0-.43,0-.85,0-1.3A.44.44,0,0,1,4,4.12c-.2.22-.4.43-.59.65a.4.4,0,0,0-.09.17c-.13.39-.24.77-.37,1.16a.58.58,0,0,1-.68.41.61.61,0,0,1-.5-.72q.13-.62.3-1.23a.92.92,0,0,1,.16-.27c.42-.49.85-1,1.27-1.48a1.18,1.18,0,0,1,1.1-.43c.39,0,.78,0,1.16.06l.48,0A1.24,1.24,0,0,1,7,2.81l.52.43a.67.67,0,0,0,.75.14c.15-.06.31-.1.46-.15a.56.56,0,0,1,.73.38.58.58,0,0,1-.42.7c-.3.09-.58.21-.88.29A1.29,1.29,0,0,1,7,4.38L6.53,4c0,.05,0,.07,0,.1,0,.39,0,.78,0,1.18,0,.08,0,.11.1.13.29.06.57.14.85.22a1.18,1.18,0,0,1,.92,1.18V8.44h.71s0-.09,0-.13V6.79c0-.23,0-.28.28-.28h3.24c.18,0,.26.07.25.22a.17.17,0,0,1-.16.17H9.47V8.52c0,.3,0,.34-.33.34H6.37c0,.05,0,.09,0,.14v1.46c0,.23-.05.28-.28.28H3.29v1.67c0,.22-.06.28-.27.28H.26c-.17,0-.24,0-.26-.17a.2.2,0,0,1,.17-.23H2.89ZM8,8.49V6.92a.81.81,0,0,0-.66-.85l-1-.26c-.19,0-.22-.09-.22-.29,0-.59,0-1.19,0-1.79,0-.1,0-.21.11-.23a.3.3,0,0,1,.24.06q.36.23.69.48a1,1,0,0,0,1,.17L8.93,4c.13-.05.18-.11.15-.21S9,3.6,8.83,3.65l-.41.13a1,1,0,0,1-1.15-.21l-.51-.44a1.06,1.06,0,0,0-.63-.27c-.56,0-1.11-.06-1.67-.09A.71.71,0,0,0,3.89,3L2.58,4.56a.35.35,0,0,0-.08.13c-.11.4-.21.79-.31,1.19a.19.19,0,0,0,.08.22.18.18,0,0,0,.24,0,.36.36,0,0,0,.11-.16c.12-.37.23-.75.36-1.12a1.08,1.08,0,0,1,.21-.34c.31-.34.63-.67.95-1a.38.38,0,0,1,.09-.09.18.18,0,0,1,.32.11.49.49,0,0,1,0,.12c0,.67,0,1.33,0,2a.68.68,0,0,0,.57.71l1.73.36a.63.63,0,0,1,.57.7v1.1ZM5.73,6.85a.34.34,0,0,1,0,.08c-.12.79-.24,1.57-.37,2.35a2.45,2.45,0,0,1-.27,1.06H6V8.69c0-.16.08-.21.23-.2H7V7.29a.22.22,0,0,0-.2-.21ZM4.59,6.54l-.06.56L4.26,9.82c0,.2.06.33.24.36a.29.29,0,0,0,.32-.28c.13-.8.26-1.6.38-2.4,0-.24.08-.48.11-.72Z"/><path class="cls-1" d="M11.32,8.23v4.24a.76.76,0,0,1,0,.15.17.17,0,0,1-.19.17.19.19,0,0,1-.2-.17V8.2l-.19.18c-.12.11-.22.12-.32,0s-.07-.2,0-.31l.5-.5a.21.21,0,0,1,.34,0l.5.51c.11.1.12.21,0,.3s-.2.08-.31,0l-.15-.18Z"/><path class="cls-1" d="M6.56,1.12a1.12,1.12,0,1,1-2.24,0,1.12,1.12,0,1,1,2.24,0Zm-.4,0A.73.73,0,0,0,5.44.4a.74.74,0,0,0-.73.71.74.74,0,0,0,.72.74A.73.73,0,0,0,6.16,1.13Z"/><path class="cls-1" d="M8.13,10v2.64a.19.19,0,0,1-.2.2.18.18,0,0,1-.2-.18.57.57,0,0,1,0-.13V9.94l-.2.2a.19.19,0,0,1-.29,0,.2.2,0,0,1,0-.3l.53-.53a.2.2,0,0,1,.31,0l.54.54a.2.2,0,0,1,0,.29.2.2,0,0,1-.3,0L8.16,10Z"/><path class="cls-1" d="M4.73,11.79c-.06.06-.11.14-.18.2a.19.19,0,0,1-.28,0,.19.19,0,0,1,0-.27l.56-.56a.19.19,0,0,1,.29,0l.56.56A.2.2,0,1,1,5.4,12c-.07-.07-.12-.14-.18-.21l0,0v.79a.2.2,0,0,1-.21.22c-.13,0-.19-.08-.2-.23v-.77Z"/></g></g></svg>