<svg xmlns="http://www.w3.org/2000/svg" viewBox="0 0 15.95 15.16"><defs><style>.cls-1{fill:#a5a5a5;}</style></defs><g id="Layer_2" data-name="Layer 2"><g id="Layer_1-2" data-name="Layer 1"><path class="cls-1" d="M16,7.49c0,.1-.09.22-.15.32a.83.83,0,0,1-.74.35H14v6.41c0,.42-.16.59-.58.59H9.7c-.41,0-.57-.17-.57-.58V10.74H6.82v3.85c0,.4-.16.57-.56.57H2.53c-.4,0-.56-.17-.56-.57V8.16H.76a.77.77,0,0,1-.7-.53.75.75,0,0,1,.19-.86C.64,6.39,1,6,1.43,5.68L7.35.29a.82.82,0,0,1,1.26,0L10.16,1.7a2.06,2.06,0,0,1,0-.25A.46.46,0,0,1,10.63,1h3.22a.46.46,0,0,1,.48.51c0,1.29,0,2.58,0,3.86a.33.33,0,0,0,.13.28l1.13,1a1.14,1.14,0,0,1,.36.53Zm-2.9,6.72V7.77a.48.48,0,0,1,.54-.55h1.18l0,0a1.05,1.05,0,0,1-.11-.07l-1.07-1a.6.6,0,0,1-.22-.52V1.92H11.09v.75a.48.48,0,0,1-.27.51A.5.5,0,0,1,10.24,3L8.18,1.17,8,1,1.15,7.21H2.31c.43,0,.59.16.59.59v6.4h3V10.36c0-.4.16-.57.56-.57H9.5c.4,0,.57.17.57.57v3.85Z"/></g></g></svg>