<svg xmlns="http://www.w3.org/2000/svg" viewBox="0 0 9.3 9.3"><defs><style>.cls-1{fill:#a5a5a5;}</style></defs><g id="Layer_2" data-name="Layer 2"><g id="Layer_1-2" data-name="Layer 1"><path class="cls-1" d="M8.25,9.3H1.05L1,9.28A1.19,1.19,0,0,1,0,8.11V1.92A1.18,1.18,0,0,1,.93.76a2.88,2.88,0,0,1,.59,0c.17,0,.34,0,.51,0V.32A.3.3,0,0,1,2.32,0a.31.31,0,0,1,.3.32v.4H6.68V.5c0-.36.08-.5.29-.5s.3.14.3.5V.73c.29,0,.57,0,.85,0a1.2,1.2,0,0,1,1.14.88c0,.06,0,.11,0,.17V8.25s0,0,0,0a1.16,1.16,0,0,1-.75.93C8.44,9.26,8.34,9.27,8.25,9.3ZM.58,3.2V8.05a.62.62,0,0,0,.67.67H8.06a.62.62,0,0,0,.66-.67V3.2Zm8.14-.59V1.92a.62.62,0,0,0-.62-.61H7.27v.27a.3.3,0,1,1-.59,0V1.31H2.62v.27a.3.3,0,1,1-.59,0V1.31H1.2a.62.62,0,0,0-.62.62v.62s0,0,0,.06Z"/></g></g></svg>