<svg xmlns="http://www.w3.org/2000/svg" viewBox="0 0 10.54 10.54"><defs><style>.cls-1{fill:#a5a5a5;}</style></defs><g id="Layer_2" data-name="Layer 2"><g id="Layer_1-2" data-name="Layer 1"><path class="cls-1" d="M0,9.55V1S0,1,0,1A1.12,1.12,0,0,1,1.16,0H5.62a.38.38,0,0,1,.29.12l2,2a.41.41,0,0,1,.12.3V3.78a.13.13,0,0,0,.09.14A2.15,2.15,0,0,1,9.25,6.47a5.51,5.51,0,0,1-.31.7h0s.07,0,.09.07l1.44,1.43a.32.32,0,0,1,.1.32.3.3,0,0,1-.52.13c-.37-.36-.74-.73-1.1-1.1l-.43-.42c-.12.07-.23.14-.34.19A.16.16,0,0,0,8,8c0,.49,0,1,0,1.46a1.13,1.13,0,0,1-.79,1.05l-.2,0H1l-.05,0a1.1,1.1,0,0,1-.89-.77C0,9.69,0,9.62,0,9.55ZM7.41,8A2.16,2.16,0,0,1,5,6a2.11,2.11,0,0,1,.51-1.5,2.16,2.16,0,0,1,1.88-.76v-1H5.73a.33.33,0,0,1-.38-.38V.62H1.21a.52.52,0,0,0-.59.59V9.34a.52.52,0,0,0,.59.58H6.93a.51.51,0,0,0,.48-.47C7.42,9,7.41,8.51,7.41,8ZM8.72,5.87A1.55,1.55,0,1,0,7.18,7.41,1.55,1.55,0,0,0,8.72,5.87ZM6,1.08v1H7Z"/><path class="cls-1" d="M3.28,3.91H1.57a.31.31,0,1,1,0-.62H5c.21,0,.35.12.34.31a.31.31,0,0,1-.34.3Z"/><path class="cls-1" d="M2.88,5.15H1.59a.31.31,0,1,1,0-.62h2.6A.31.31,0,0,1,4.5,5a.3.3,0,0,1-.3.19Z"/><path class="cls-1" d="M2.88,6.38H1.59a.31.31,0,0,1-.35-.3.3.3,0,0,1,.34-.31h2.6a.31.31,0,1,1,0,.61Z"/><path class="cls-1" d="M2.87,7.62H1.59a.32.32,0,0,1-.35-.31A.31.31,0,0,1,1.58,7h2.6a.32.32,0,0,1,.35.31.31.31,0,0,1-.34.31Z"/></g></g></svg>