<svg xmlns="http://www.w3.org/2000/svg" viewBox="0 0 10.57 10.57"><defs><style>.cls-1{fill:#a5a5a5;}</style></defs><g id="Layer_2" data-name="Layer 2"><g id="Layer_1-2" data-name="Layer 1"><path class="cls-1" d="M4.31,0c.21,0,.43.06.64.11A4,4,0,0,1,8,3.44c0,.11,0,.23,0,.34a.1.1,0,0,0,.08.11,3.42,3.42,0,0,1,2,4.92.19.19,0,0,0,0,.18c.14.5.27,1,.41,1.5a.31.31,0,0,1,0,.07l-.66-.19L9,10.12a.25.25,0,0,0-.15,0,3.43,3.43,0,0,1-4.94-2c0-.07,0-.09-.11-.1A4,4,0,0,1,2,7.54a.22.22,0,0,0-.14,0L.08,8,0,8.06c.07-.25.13-.49.2-.73s.22-.77.32-1.16A.25.25,0,0,0,.51,6,4,4,0,0,1,0,4.4s0-.32,0-.64a3.19,3.19,0,0,1,.1-.63,4,4,0,0,1,3-3c.2,0,.41-.07.61-.1ZM.9,7.17,2,6.88a.22.22,0,0,1,.22,0,3.36,3.36,0,0,0,2.47.49A3.41,3.41,0,0,0,7.37,3.35,3.26,3.26,0,0,0,4.87.73a3.26,3.26,0,0,0-3.44,1.1,3.38,3.38,0,0,0-.27,4.06.22.22,0,0,1,0,.22C1.09,6.46,1,6.8.9,7.17ZM8.06,4.51A4.12,4.12,0,0,1,4.51,8.07,2.79,2.79,0,0,0,7.06,10,2.73,2.73,0,0,0,8.7,9.48a.21.21,0,0,1,.19,0l.35.1.42.12c-.07-.27-.13-.51-.21-.75a.26.26,0,0,1,0-.23,2.73,2.73,0,0,0,.16-2.77A2.7,2.7,0,0,0,8.06,4.51Z"/><path class="cls-1" d="M3.41,3.09H2.79a1.19,1.19,0,0,1,.38-.88A1.24,1.24,0,1,1,4.88,4l-.47.44a.23.23,0,0,0-.07.14c0,.13,0,.26,0,.39H3.72V4.25s0-.06.07-.09l.67-.62A.61.61,0,0,0,4,2.48.62.62,0,0,0,3.42,3Z"/><path class="cls-1" d="M4.33,5.6v.61h-.6V5.6Z"/></g></g></svg>