<?xml version="1.0" ?><!DOCTYPE svg  PUBLIC '-//W3C//DTD SVG 1.1//EN'  'http://www.w3.org/Graphics/SVG/1.1/DTD/svg11.dtd'><svg height="8.4666mm" style="shape-rendering:geometricPrecision; text-rendering:geometricPrecision; image-rendering:optimizeQuality; fill-rule:#; clip-rule:evenodd" version="1.1" viewBox="0 0 846.66 846.66" width="8.4666mm" xml:space="preserve"  xmlns="http://www.w3.org/2000/svg" xmlns:xlink="http://www.w3.org/1999/xlink"><defs><style type="text/css">
   <![CDATA[
    .fil0 {fill:#519bf4;fill-rule:nonzero}
   ]]>
  </style></defs><g id="Layer_x0020_1"><path  class="fil0" d="M262.45 8.15l513.79 0c11.46,0 20.76,9.29 20.76,20.75l0 705.82c0,57.13 -46.67,103.79 -103.8,103.79l-622.78 0c-11.46,0 -20.75,-9.29 -20.75,-20.76l0 -355.5c0,-11.46 9.29,-20.76 20.75,-20.76l88.23 0 0 -329.55c0,-57.13 46.66,-103.79 103.8,-103.79zm57.08 203.69c-27.3,0 -27.3,-41.51 0,-41.51l316.58 0c27.31,0 27.31,41.51 0,41.51l-316.58 0zm0 464.49c-27.3,0 -27.3,-41.52 0,-41.52l316.58 0c27.31,0 27.31,41.52 0,41.52l-316.58 0zm0 -309.66c-27.3,0 -27.3,-41.52 0,-41.52l316.58 0c27.31,0 27.31,41.52 0,41.52l-316.58 0zm0 154.83c-27.3,0 -27.3,-41.52 0,-41.52l316.58 0c27.31,0 27.31,41.52 0,41.52l-316.58 0zm-160.88 275.5l0 -313.99 -67.47 0 0 313.99 67.47 0zm596.83 -747.34l-493.03 0c-34.21,0 -62.28,28.07 -62.28,62.28l0 685.06 493.03 0c34.21,0 62.28,-28.07 62.28,-62.28l0 -685.06z"/></g></svg>
