<svg width="384" height="512" viewBox="0 0 384 512" fill="none" xmlns="http://www.w3.org/2000/svg">
<g clip-path="url(#clip0_68_4)">
<path d="M365.3 93.38L290.67 18.74C278.6 6.742 262.3 0 245.4 0H64C28.65 0 0 28.65 0 64L0.0065 448C0.0065 483.34 28.6565 512 64.0065 512H320C355.2 512 384 483.2 384 448V138.6C384 121.7 377.3 105.4 365.3 93.38ZM336 448C336 456.836 328.836 464 320 464H64.02C55.182 464 48.02 456.836 48.02 448L48 64.13C48 55.294 55.164 48.13 64 48.13H224V128C224 145.67 238.33 160 256 160H335.1V448H336ZM202 286.1C202.877 283.412 203.74 280.702 204.582 277.955C206.016 272.193 212.07 246.415 212.07 225.485C212.1 207 197.1 192 178.6 192C160.1 192 145.1 207 145.1 225.5C145.1 225.797 145.264 254.31 158.95 287.8C151.915 307.16 143.38 326.6 133.54 345.73C112.05 355.84 94.3 367.96 80.74 381.8C74.506 388.238 71.373 396.54 71.373 406.52C71.373 424.97 86.383 439.98 104.833 439.98C115.633 439.98 125.813 434.753 132.053 426C139.375 415.72 150.433 399.1 162.523 377.05C178.323 370.698 196.403 365.33 216.403 361.05C229.953 370.628 245.303 378.34 262.113 384C266.64 385.551 271.515 386.348 276.543 386.348C296.803 386.348 312.673 370.158 312.673 349.488C312.673 329.158 296.133 312.618 275.803 312.618H272.098C269.371 312.743 251.588 313.759 226.728 317.985C216.9 308.9 208.6 298.3 202 286.1ZM110.2 410.4C106.927 415.088 98.17 413.177 98.17 405.088C98.17 403.334 98.7989 401.658 99.899 400.533C108.919 391.314 119.839 383.483 131.749 376.813C122.3 393.1 114.3 404.7 110.2 410.4ZM178.6 218.8C182.293 218.8 185.303 221.808 185.303 225.503C185.303 240.713 181.194 260.343 179.557 267.603C172.1 245 171.9 227.2 171.9 225.5C171.9 221.8 174.9 218.8 178.6 218.8ZM162.3 348.3C168.911 334.82 175.52 319.84 181.68 303.6C188.069 314.52 196.24 325.46 206.64 335.57C192.6 338.8 177.4 342.9 162.3 348.3ZM272.4 339.5H275.752C281.291 339.5 285.802 344 285.802 350.29C285.802 355.419 281.626 359.61 276.482 359.61C274.453 359.61 272.423 359.294 270.63 358.669C258.3 354.532 247.52 349.349 238.09 343.479C258.3 340.3 272.1 339.5 272.4 339.5Z" fill="white" fill-opacity="0.8"/>
</g>
<defs>
<clipPath id="clip0_68_4">
<rect width="384" height="512" fill="white"/>
</clipPath>
</defs>
</svg>
