<svg xmlns="http://www.w3.org/2000/svg" viewBox="0 0 8.72 10.39"><defs><style>.cls-1{fill:#a5a5a5;}</style></defs><g id="Layer_2" data-name="Layer 2"><g id="Layer_1-2" data-name="Layer 1"><path class="cls-1" d="M4.28,10.39l-.84-.33L1,9.16a.3.3,0,0,1-.23-.34V7.7a1,1,0,0,1,0-2v-1c0-.29.18-.42.45-.32l.48.17s.08,0,.09,0a3.53,3.53,0,0,1,1.29-.83h0a2,2,0,1,1,2.46,0,6.36,6.36,0,0,1,.58.3c.24.16.46.35.68.53a.14.14,0,0,0,.15,0,3.94,3.94,0,0,1,.48-.18.3.3,0,0,1,.43.3V5.69c.59.25.82.56.81,1a1.06,1.06,0,0,1-.81,1V8.8a.33.33,0,0,1-.25.37L4.48,10.36l0,0ZM4.05,6,1.42,5v.64a.53.53,0,0,1,.4.58c0,.28,0,.55,0,.83a.54.54,0,0,1-.41.61c0,.29,0,.58,0,.87,0,.07,0,.09.09.12l1.75.65.8.3Zm3.25-1-.09,0L4.75,6c-.07,0-.09,0-.09.13V9.64l.11,0,2.31-.86c.22-.08.22-.08.22-.32V7.7a.52.52,0,0,1-.41-.56V6.22a.68.68,0,0,1,0-.14.49.49,0,0,1,.39-.39ZM4.36,3.45A1.42,1.42,0,1,0,2.94,2,1.43,1.43,0,0,0,4.36,3.45ZM2.45,4.78l0,0,1.81.67a.19.19,0,0,0,.13,0l1-.36.89-.33A2.89,2.89,0,0,0,2.45,4.78ZM1.21,6.29H1a.4.4,0,0,0-.34.23.38.38,0,0,0,0,.42c.13.18.32.17.52.15Zm6.3,0V7.1h.24a.41.41,0,0,0,0-.81Z"/></g></g></svg>