<svg xmlns="http://www.w3.org/2000/svg" viewBox="0 0 13.76 10.1"><defs><style>.cls-1{fill:#a5a5a5;}</style></defs><g id="Layer_2" data-name="Layer 2"><g id="Layer_1-2" data-name="Layer 1"><path class="cls-1" d="M13.73,8.06a.86.86,0,0,0-.65-.66l-.67-.19c-.06,0-.15-.07-.15-.1s-.07-.24.05-.34a1.44,1.44,0,0,0,.58-1.27A1,1,0,0,1,13,5a.64.64,0,0,0,.08-.3q0-.63,0-1.26c0-.12-.09-.19-.23-.19-.69,0-1.37,0-2.06,0A1.24,1.24,0,0,0,9.8,5a1.08,1.08,0,0,1,.11.5,1.55,1.55,0,0,0,.58,1.27.15.15,0,0,1,.06.1c0,.27,0,.3-.24.37a1.27,1.27,0,0,0-.18.06.39.39,0,0,1-.3,0L9.13,7C9,7,8.79,6.94,8.74,6.74l0,0a.83.83,0,0,1-.33-.88s0,0,0,0a1.22,1.22,0,0,1,.07-.17A7.17,7.17,0,0,0,9,4.94a2.4,2.4,0,0,0,.27-1.32,1.25,1.25,0,0,1,.08-.5,1.62,1.62,0,0,0,.11-.53c0-.79,0-1.57,0-2.35A.2.2,0,0,0,9.22,0c-1,0-2.06,0-3.08,0A1.79,1.79,0,0,0,4.51,1.09,2.73,2.73,0,0,0,4.4,3a3.78,3.78,0,0,1,.13.83,2.15,2.15,0,0,0,.56,1.56,1,1,0,0,1,.3.85s0,0,0,0a.84.84,0,0,1-.08.19A3.68,3.68,0,0,0,5,6.8a.32.32,0,0,1-.2.16c-.4.15-.8.29-1.2.46a.24.24,0,0,1-.3,0A1.82,1.82,0,0,0,4,6.87.31.31,0,0,0,4,6.53.92.92,0,0,1,4,6.26c0-.3-.05-.61-.08-.91a5.06,5.06,0,0,0-.12-.87A1.66,1.66,0,0,0,1.92,3.26,1.69,1.69,0,0,0,.49,4.62c-.06.31,0,.65-.09,1a4.25,4.25,0,0,1-.13.87.42.42,0,0,0,.1.48c.07.06.12.13.19.18L1,7.39.5,7.64a.86.86,0,0,0-.5.81V9.9a.21.21,0,0,0,.2.2.2.2,0,0,0,.2-.19.4.4,0,0,0,0-.11c0-.44,0-.89,0-1.33A.47.47,0,0,1,.69,8l.54-.28a.13.13,0,0,1,.17,0A2.51,2.51,0,0,0,1.71,8a.87.87,0,0,0,1.11-.19c.16-.16.16-.16.31,0A5,5,0,0,0,3,8.42c0,.46,0,.93,0,1.39A.76.76,0,0,0,3,10a.18.18,0,0,0,.2.14.18.18,0,0,0,.18-.17.57.57,0,0,0,0-.13V8.4a.62.62,0,0,1,.37-.63c.45-.19.91-.35,1.37-.52L5.68,8a.41.41,0,0,0,.7.07,3.47,3.47,0,0,0,.25-.29l0,0v2c0,.21.07.31.2.3s.2-.1.2-.3V8s0-.09,0-.18c.13.13.22.24.33.34a.41.41,0,0,0,.63-.06c0-.07.1-.14.14-.21l.41-.61,1.3.47a.65.65,0,0,1,.44.65V9.89a.2.2,0,0,0,.2.21.19.19,0,0,0,.2-.2.45.45,0,0,0,0-.11c0-.35,0-.7,0-1a1.46,1.46,0,0,0-.3-1.12c.23-.09.23-.09.39.07l.27.27a.24.24,0,0,1,.09.21V9.86c0,.15.08.24.2.24a.2.2,0,0,0,.2-.23v-.1c0-.53,0-1.07,0-1.61A.25.25,0,0,1,11.66,8q.18-.2.39-.39a.22.22,0,0,1,.14,0l.77.22a.46.46,0,0,1,.39.53v1.5c0,.11,0,.22.14.27s.2,0,.27-.12V8.09ZM.69,6.7a.12.12,0,0,1,0-.1,3.48,3.48,0,0,1,.1-.41,1.81,1.81,0,0,0,.48.61c.05,0,0,.16.06.26A1.47,1.47,0,0,1,.69,6.7Zm1.69,1a.48.48,0,0,1-.48,0c-.3-.14-.21-.39-.2-.6h.87C2.6,7.27,2.68,7.52,2.38,7.66ZM2,6.67a1.09,1.09,0,0,1-.9-.94V5.66c0-.2,0-.22-.24-.28a1.71,1.71,0,0,1,.54-1.46,1.26,1.26,0,0,1,1.72.15,1.68,1.68,0,0,1,.37,1.28,2.08,2.08,0,0,0-1.66-.81.31.31,0,0,0-.27.1c-.09.1-.2.2-.29.31a.21.21,0,0,0,0,.31.22.22,0,0,0,.3,0,.5.5,0,0,0,.1-.11A.39.39,0,0,1,2.08,5a1.63,1.63,0,0,1,1,.61.38.38,0,0,1,0,.41A1.1,1.1,0,0,1,2,6.67Zm1,.39a.31.31,0,0,1,.11-.34,4.63,4.63,0,0,0,.41-.49c0,.11.07.25.1.38s0,.07,0,.1A1.7,1.7,0,0,1,3,7.06ZM5.13,4.69a2.08,2.08,0,0,1-.2-1A2.11,2.11,0,0,0,4.82,3a2.56,2.56,0,0,1-.06-1.4A1.47,1.47,0,0,1,6.14.42c1,0,1.91,0,2.86,0H9s0,0,0,0c0,.68,0,1.36,0,2a4,4,0,0,1-.15.65,1.28,1.28,0,0,0-.05.27,7.61,7.61,0,0,1-.08,1A1.92,1.92,0,0,1,7.11,5.81,1.94,1.94,0,0,1,5.13,4.69ZM6,7.84,5.45,7a.18.18,0,0,1,0-.1l.15-.16.94.63Zm.84-.77-1-.71a.12.12,0,0,1,0-.1,3,3,0,0,1,0-.3A2.36,2.36,0,0,0,8,6c0,.12,0,.21,0,.31a.16.16,0,0,1,0,.09Zm1.33,0c-.16.24-.33.48-.48.72l-.51-.51.91-.62h0C8.36,6.89,8.36,6.89,8.21,7.12Zm3.54.21c-.12.11-.22.23-.35.36A5.42,5.42,0,0,1,11,7.26s0-.15,0-.2h.89A.24.24,0,0,1,11.75,7.33Zm-.41-.65a1.08,1.08,0,0,1-1-.77,1.85,1.85,0,0,1-.06-.52,1.08,1.08,0,0,0-.12-.5.85.85,0,0,1,.56-1.22,1,1,0,0,1,.24,0h1.7c0,.29,0,.58,0,.86a.91.91,0,0,1-.09.36,1.07,1.07,0,0,0-.12.61,1.2,1.2,0,0,1-.14.64A1.1,1.1,0,0,1,11.34,6.68Z"/><path class="cls-1" d="M12.89,8.67c0-.17-.07-.26-.2-.26s-.2.09-.2.25V9.84c0,.17.08.27.21.26s.19-.09.19-.25,0-.39,0-.59S12.9,8.87,12.89,8.67Z"/><path class="cls-1" d="M1.26,8.91a.2.2,0,0,0-.2-.23.21.21,0,0,0-.2.22v1a.2.2,0,0,0,.21.22.2.2,0,0,0,.19-.22c0-.16,0-.32,0-.49S1.27,9.07,1.26,8.91Z"/><path class="cls-1" d="M9.45,9.1v0c0-.15-.08-.24-.21-.24s-.19.1-.19.25v.76c0,.16.08.26.2.25s.2-.09.2-.25,0-.25,0-.38Z"/><path class="cls-1" d="M4.71,9.06a.2.2,0,1,0-.4,0c0,.28,0,.57,0,.85a.2.2,0,0,0,.21.2.19.19,0,0,0,.19-.21V9.48h0Z"/><path class="cls-1" d="M5.57,2.32a5.58,5.58,0,0,1,1.35-.06,2.11,2.11,0,0,1,1.34.47.19.19,0,0,0,.28,0,.21.21,0,0,0,0-.3,2,2,0,0,0-.94-.47,5.54,5.54,0,0,0-2,0,.4.4,0,0,0-.35.38c0,.15,0,.3,0,.44s.08.25.2.25.2-.08.2-.25S5.57,2.47,5.57,2.32Z"/><path class="cls-1" d="M12.1,4.54a3.45,3.45,0,0,0-1.35-.22.2.2,0,0,0,0,.39A4.49,4.49,0,0,1,12,4.92c.13,0,.25-.06.24-.24C12.21,4.65,12.17,4.57,12.1,4.54Z"/></g></g></svg>