<svg xmlns="http://www.w3.org/2000/svg" viewBox="0 0 9.57 9.45"><defs><style>.cls-1{fill:#a5a5a5;}</style></defs><g id="Layer_2" data-name="Layer 2"><g id="Layer_1-2" data-name="Layer 1"><path class="cls-1" d="M2.39,8.22h-1a2.2,2.2,0,0,1-.36,0A1.29,1.29,0,0,1,0,6.94V3.45A1.33,1.33,0,0,1,1.42,2.13H4.88c.24,0,.39.16.33.35a.3.3,0,0,1-.28.19H1.43a.77.77,0,0,0-.85.8V6.89a.77.77,0,0,0,.86.79H2.65c.25,0,.36.1.35.33s0,.5,0,.76c0,0,0,.11,0,.13s.1,0,.14,0L4.74,7.77A.53.53,0,0,1,5,7.68H6.85a.77.77,0,0,0,.81-.54.69.69,0,0,0,0-.25c0-.69,0-1.39,0-2.09A.3.3,0,0,1,8,4.51a.28.28,0,0,1,.29.29V6.85a2.26,2.26,0,0,1,0,.26A1.31,1.31,0,0,1,7,8.21c-.6,0-1.21,0-1.81,0A.31.31,0,0,0,5,8.28c-.51.34-1,.69-1.51,1a.7.7,0,0,1-1-.14.63.63,0,0,1-.12-.37C2.4,8.61,2.39,8.42,2.39,8.22Z"/><path class="cls-1" d="M6.27,3.19c0-.23,0-.46.05-.69a.27.27,0,0,0-.05-.15C6.14,2.18,6,2,5.86,1.85A.48.48,0,0,1,6.12,1L6.75.88A.19.19,0,0,0,6.87.79L7.22.25a.49.49,0,0,1,.85,0c.12.18.23.36.34.54a.24.24,0,0,0,.15.11L9.17,1a.49.49,0,0,1,.26.82L9,2.34A.25.25,0,0,0,9,2.5C9,2.73,9,3,9,3.18a.48.48,0,0,1-.42.51.5.5,0,0,1-.27,0l-.61-.23a.19.19,0,0,0-.15,0l-.64.25A.49.49,0,0,1,6.27,3.19Zm2.16-.12c0-.23,0-.45,0-.66a.42.42,0,0,1,.1-.32l.44-.52c-.18,0-.35-.1-.52-.12a.61.61,0,0,1-.47-.35C7.85,1,7.75.81,7.65.65c-.12.19-.24.37-.35.56a.41.41,0,0,1-.28.2l-.64.16c.13.16.25.32.38.46a.49.49,0,0,1,.14.46c0,.19,0,.37,0,.58.2-.08.38-.14.55-.22a.5.5,0,0,1,.49,0Z"/><path class="cls-1" d="M4.2,3.82H5.77a.29.29,0,0,1,.3.22.3.3,0,0,1-.28.36H2.66a.32.32,0,0,1-.32-.19.29.29,0,0,1,.28-.39H4.2Z"/><path class="cls-1" d="M3.45,5.28h.86a.29.29,0,0,1,.27.22.28.28,0,0,1-.14.31.33.33,0,0,1-.17,0c-.54,0-1.09,0-1.64,0a.29.29,0,0,1-.31-.28.29.29,0,0,1,.32-.29Z"/></g></g></svg>