<svg xmlns="http://www.w3.org/2000/svg" viewBox="0 0 8.72 8.72"><defs><style>.cls-1{fill:#a5a5a5;}</style></defs><g id="Layer_2" data-name="Layer 2"><g id="Layer_1-2" data-name="Layer 1"><path class="cls-1" d="M3.46,5.45H6A1.09,1.09,0,0,0,7.08,4.33V1.12a1.09,1.09,0,0,0,0-.26A1.07,1.07,0,0,0,6,0H1.11a1.08,1.08,0,0,0-1,.74A1.66,1.66,0,0,0,0,1V4.5l0,0a1.06,1.06,0,0,0,.54.78,1.19,1.19,0,0,0,.53.14V6.77a.29.29,0,0,0,.16.29A.29.29,0,0,0,1.57,7L3.3,5.5A.22.22,0,0,1,3.46,5.45Zm-1.75.7a.28.28,0,0,1-.08.06v-1c0-.22-.1-.33-.32-.33H1.09a.53.53,0,0,1-.54-.55c0-.16,0-.32,0-.48V1.16A.56.56,0,0,1,1.16.55H5.92a.56.56,0,0,1,.62.61V4.29a.56.56,0,0,1-.62.61H3.33a.4.4,0,0,0-.28.1C2.61,5.39,2.16,5.77,1.71,6.15Z"/><path class="cls-1" d="M8.71,2.73a1.07,1.07,0,0,0-.54-.95L8,1.71a.27.27,0,0,0-.36.14.26.26,0,0,0,.14.35.59.59,0,0,1,.38.62V6a.54.54,0,0,1-.57.58H7.38a.27.27,0,0,0-.3.3v1L7,7.79,5.67,6.64a.4.4,0,0,0-.28-.1H3a.28.28,0,0,0-.26.25A.29.29,0,0,0,3,7.08H5.27a.2.2,0,0,1,.13,0L7.1,8.58a2.43,2.43,0,0,0,.2.14h.12a.34.34,0,0,0,.21-.36c0-.36,0-.72,0-1.08V7.09h.06A1.07,1.07,0,0,0,8.71,6C8.72,4.91,8.72,3.82,8.71,2.73Z"/><path class="cls-1" d="M1.92,2.18H5.17a.27.27,0,0,0,.06-.54.48.48,0,0,0-.12,0c-1,0-2.09,0-3.14,0,0,0-.06,0-.08,0a.26.26,0,0,0-.24.18A.27.27,0,0,0,1.92,2.18Z"/><path class="cls-1" d="M4.06,3.27A.28.28,0,0,0,4.36,3a.28.28,0,0,0-.3-.28H1.93a.28.28,0,0,0-.26.14.27.27,0,0,0,.25.41H4.06Z"/></g></g></svg>